<?xml version="1.0" encoding="utf-8"?>
<!-- Generator: Adobe Illustrator 23.0.6, SVG Export Plug-In . SVG Version: 6.00 Build 0)  -->
<svg version="1.1" id="Layer_1" xmlns="http://www.w3.org/2000/svg" xmlns:xlink="http://www.w3.org/1999/xlink" x="0px" y="0px"
	 viewBox="0 0 425.2 425.2" style="enable-background:new 0 0 425.2 425.2;" xml:space="preserve">
<path d="M247.12,212.5c-1.06,0.79-2.27,1.75-3.25,2.59c0.52-1.77,0.98-3.55,1.39-5.32c0.07-0.24-0.59-0.24-0.7-0.07
	c-0.59,1.08-1.18,2.16-1.85,3.2c-0.24,0.38-1.57,3.03-2.19,3.03c-0.9,0,0.56-4.91,0.77-5.81c0.04-0.21-0.56-0.24-0.63-0.04
	c-0.18,0.7-0.87,2.41-1.19,3.9c-0.97,0.84-1.93,1.68-3.06,2.14c-0.94,0.38-1.21,0.37-1.24-0.5c-0.02-0.55,0.14-1.2,0.33-1.83
	c0.01-0.03,0.02-0.05,0.02-0.08v0c0.16-0.53,0.34-1.04,0.45-1.47c1.71-6.37,3.34-12.78,5.05-19.18c0.07-0.28-0.63-0.31-0.7-0.1
	c-1.18,4.39-2.37,8.77-3.55,13.16c-0.69,2.58-1.56,5.19-2.15,7.83c0,0,0,0,0,0c-1.41,1.06-4.65,3.57-4.68,0.35
	c0-0.19,0.01-0.38,0.03-0.58c0-0.03,0.01-0.06,0.01-0.1c0.18-1.67,0.92-3.57,1.32-5.06c0.06-0.21,0.13-0.46,0.22-0.75
	c1.63,0.02,2.95,0.05,3.81,0.07c0.3-0.07,0.08-0.32,0.08-0.32c-0.84-0.06-2.16-0.1-3.77-0.14c1.27-4.14,4.46-13.93,4.71-14.84
	c0.07-0.24-0.52-0.28-0.59-0.1c-0.24,0.66-0.59,1.64-0.98,2.75l-0.07,0.28c-1.22,3.62-2.89,8.7-3.55,10.9
	c-0.09,0.33-0.19,0.66-0.3,1c-7.5-0.15-20.33-0.14-24.04-0.03c0.44-5.81-0.88-12.29-5.69-15.44c-0.09-0.07-0.84-0.32-0.75,0.04
	c0.88,3.02,0.76,5.96,0.09,9.01c-0.06,0.27,0.63,0.51,0.72,0.25c0.9-2.75,0.94-5.56,0.28-8.36c3.9,3.24,4.91,9.11,4.43,14.5
	c-3.24,0.11-6.48,0.33-9.7,0.62c-4.03,0.39-8.11,0.8-12,1.86c-1.62,0.44-6.34,1.44-6.42,3.73c-0.03,1.17,1.69,2.6,2.36,3.31
	c1.17,1.21,2.46,2.27,3.84,3.19c2.55,1.68,5.53,3.1,8.54,3.65c7.25,1.3,11.88-5.29,13.49-11.51c0.35-1.35,0.6-2.85,0.74-4.42
	c3.76-0.11,16.48-0.08,23.98,0.01c-0.02,0.07-0.04,0.13-0.06,0.2l-0.11,0.45c-0.57,1.74-1.16,3.58-1.38,5.32
	c-0.45,0.5-0.77,1.13-1.19,1.67c-0.23,0.26-0.46,0.52-0.74,0.72c-0.06-0.02-0.09-0.03-0.16-0.05c-0.15-0.31-0.15-0.71-0.18-1.03
	c-0.04-0.87,0.07-1.63,0.24-2.47c0.1-0.52,0.35-1.25,0.17-1.77c-0.21-0.59-0.73-0.73-1.29-0.59c-0.7,0.14-1.25,0.59-1.71,1.18
	c0.1-0.59,0.17-1.18,0.21-1.77c0-0.1-0.28-0.1-0.31,0c-0.49,1.22-0.86,2.52-1.21,3.82c-0.84,0.69-1.69,1.4-2.62,2
	c-0.52,0.35-1.91,1.32-1.91,0.17c0-0.45,0.1-0.94,0.28-1.43c1.67,0.59,3.34-1.12,3.9-2.61c0.21-0.59,0.21-1.46-0.45-1.77
	c-0.7-0.31-1.5,0.21-2.02,0.66c-0.82,0.7-1.4,1.74-1.83,2.73c-0.63,0.15-0.97-0.12-1.16-0.57c0.04-0.49,0-1.15-0.35-1.32
	c-0.14-0.07-0.73-0.14-0.73,0.14c0.03,0.42,0.14,0.84,0.31,1.18c-0.11,0.73-0.38,1.6-0.49,1.78c-0.18,0.31-0.91,1.63-1.32,1.29
	c-0.42-0.35-0.14-1.98-0.07-2.44c0.03-0.28-0.7-0.28-0.8-0.07c-0.38,0.84-0.66,1.78-1.22,2.51c-0.42,0.56-0.52,0.52-0.52-0.1
	c0-0.66,0.45-1.6,0.66-2.26c0.38-1.18,0.87-2.37,1.11-3.59c0.04-0.14-0.35-0.1-0.42,0c-0.27,0.44-0.48,0.91-0.66,1.4
	c-0.21-0.02-0.41-0.05-0.61-0.1c-0.42-0.11-0.82-0.29-1.15-0.53c-0.02-0.02-0.04-0.02-0.04-0.05c-0.13-0.42-0.31-0.82-0.51-1.21
	c-0.15-0.27-0.51-0.16-0.6,0.09c-0.2,0.6,0.09,1.11,0.53,1.5c0.33,1.3,0.15,2.76-0.53,3.96c-0.22,0.4-0.49,0.77-0.84,1.06
	c-0.31,0.24-0.77,0.44-1.1,0.13c-0.31-0.27-0.4-0.75-0.44-1.13c-0.07-0.49-0.07-0.97-0.02-1.46c0.13-1.11,0.55-2.17,1.24-3.05
	c0.11-0.13,0.13-0.31,0-0.44c-0.11-0.13-0.35-0.13-0.46,0c-0.71,0.91-1.19,1.99-1.37,3.14c-0.09,0.57-0.11,1.17-0.04,1.75
	c0.07,0.51,0.15,1.06,0.46,1.46c0.36,0.46,0.93,0.64,1.48,0.46c0.53-0.15,0.95-0.55,1.28-0.99c0.64-0.88,1.02-1.92,1.13-3.01
	c0.04-0.46,0.04-0.93-0.02-1.39c0.22,0.13,0.46,0.22,0.66,0.29c0.24,0.08,0.49,0.13,0.74,0.16c-0.08,0.23-0.15,0.46-0.23,0.69
	c-0.24,0.73-1.57,3.27-0.87,4.04c0.84,0.91,1.71-0.17,2.33-1.32c0.17,0.97,0.66,1.71,1.85,0.9c0.8-0.56,1.29-1.5,1.5-2.44
	c0.29,0.22,0.63,0.33,1,0.29c-0.26,0.66-0.64,1.62-0.37,2.22c0.7,1.65,3.36-0.26,5.08-1.71c-0.18,0.67-0.36,1.33-0.55,1.99
	c-0.07,0.28,0.63,0.31,0.7,0.07c0.38-1.01,0.73-2.05,1.18-3.03c0.35-0.77,0.98-2.3,1.78-2.68c0.94-0.45,0.69,0.63,0.59,1.29
	c-0.17,1.01-0.35,1.95-0.35,2.96c0.03,0.52,0.07,1.29,0.59,1.57c0.42,0.21,0.94,0.04,1.29-0.24c0.41-0.33,0.79-0.75,1.12-1.21
	c0.23,2.79,3.5,1,5.34-0.44c0,0.02-0.01,0.04-0.01,0.05c-0.79,3.87,2.93,1.43,4.93-0.24c-0.16,1.08-0.04,1.93,0.77,1.98
	c0.73,0.07,1.43-0.73,1.85-1.25c0.73-0.9,1.32-1.95,1.88-2.99c-0.28,1.18-0.59,2.37-0.94,3.52c-3.06,2.78-5.88,5.92-8.39,9.12
	c-0.8,1.01-6.34,7.62-3.62,8.46c1.01,0.31,2.26-0.84,2.96-1.43c2.09-1.74,3.86-3.86,5.33-6.13c1.88-2.96,3.17-6.13,4.18-9.37
	c1.32-1.25,2.63-2.47,3.99-3.68c0.06-0.06,0.06-0.16-0.01-0.21l-0.07-0.05C247.24,212.46,247.17,212.46,247.12,212.5z
	 M204.46,213.98l-0.03,0.08c-1.38,3.83-3.9,7.54-7.95,8.84c-4.42,1.43-9.7-1.33-13.16-3.9c-1.06-0.77-5.38-3.97-4.75-5.7
	c0.55-1.5,3.6-2.26,4.97-2.72c3.76-1.22,7.81-1.64,11.74-2.06c3.47-0.36,6.97-0.6,10.47-0.73
	C205.54,210.05,205.11,212.18,204.46,213.98z M219.05,213.48c0-0.01,0.01-0.02,0.01-0.03c0,0,0,0,0,0c0.33-0.69,0.76-1.36,1.13-1.91
	l-0.04,0.07c0.28-0.42,0.8-1.18,1.32-1.29c0.59-0.14,0.49,0.73,0.35,1.15c-0.42,1.22-1.6,2.58-2.96,2.4
	C218.93,213.75,218.99,213.62,219.05,213.48z M240.07,223l-0.04-0.03c-0.94,1.77-2.02,3.52-3.31,5.12
	c-0.38,0.45-4.98,5.64-5.53,4.32c-0.42-1.01,1.57-3.62,2.12-4.46c1.25-1.84,2.68-3.62,4.14-5.32c1.6-1.85,3.31-3.55,5.05-5.22
	C241.85,219.31,241.05,221.19,240.07,223z"/>
</svg>
